<svg width="53" height="44" viewBox="0 0 53 44" fill="none" xmlns="http://www.w3.org/2000/svg">
<path d="M21.0619 8.68182L22.8351 28.5046" stroke="#C52C14" stroke-width="3" stroke-linejoin="round"/>
<path d="M42.6136 39.1955C42.6136 40.7111 41.3929 41.9273 39.9023 41.9273C38.4117 41.9273 37.1909 40.7111 37.1909 39.1955C37.1909 37.6799 38.4117 36.4637 39.9023 36.4637C41.3929 36.4637 42.6136 37.6799 42.6136 39.1955Z" stroke="#C52C14" stroke-width="3"/>
<path d="M2 2H8.87116L10.7189 8.90455M10.7189 8.90455L15.964 28.5045H45.2218L50.7631 8.90455H10.7189Z" stroke="#C52C14" stroke-width="3" stroke-linecap="round" stroke-linejoin="round"/>
<path d="M16.1855 28.2818V35.4091H45.4434" stroke="#C52C14" stroke-width="3" stroke-linecap="round" stroke-linejoin="round"/>
<path d="M48.1033 18.7045H13.3041" stroke="#C52C14" stroke-width="3" stroke-linejoin="round"/>
<path d="M40.5671 8.90454L38.7939 28.7273" stroke="#C52C14" stroke-width="3" stroke-linejoin="round"/>
<path d="M30.5929 8.90454V28.7273" stroke="#C52C14" stroke-width="3" stroke-linejoin="round"/>
<path d="M20.8403 8.90454L22.8351 28.7273" stroke="#C52C14" stroke-width="3" stroke-linejoin="round"/>
<path d="M23.9949 39.1955C23.9949 40.7111 22.7742 41.9273 21.2836 41.9273C19.793 41.9273 18.5722 40.7111 18.5722 39.1955C18.5722 37.6799 19.793 36.4637 21.2836 36.4637C22.7742 36.4637 23.9949 37.6799 23.9949 39.1955Z" stroke="#C52C14" stroke-width="3"/>
</svg>
