<svg width="264" height="20" viewBox="0 0 264 20" fill="none" xmlns="http://www.w3.org/2000/svg">
<path d="M3.89551 20V19.2188H2.33301V18.4375H1.55176V16.875H0.770508V4.375H3.11426V15.3125H3.89551V16.875H4.67676V17.6562H8.58301V16.875H9.36426V15.3125H10.1455V4.375H12.4893V16.875H11.708V18.4375H10.9268V19.2188H9.36426V20H3.89551ZM13.8213 20V4.375H17.7275V5.9375H18.5088V7.5H19.29V9.0625H20.0713V10.625H20.8525V12.1875H21.6338V13.75H22.415V15.3125H23.1963V16.875H23.9775V4.375H26.3213V20H22.415V18.4375H21.6338V16.875H20.8525V15.3125H20.0713V13.75H19.29V12.1875H18.5088V10.625H17.7275V9.0625H16.9463V7.5H16.165V20H13.8213ZM27.6533 20V4.375H37.0283V6.71875H29.9971V10.625H37.0283V12.9688H29.9971V17.6562H37.0283V20H27.6533ZM43.9404 20V4.375H47.8467V5.9375H48.6279V7.5H49.4092V9.0625H50.1904V10.625H50.9717V12.1875H51.7529V13.75H52.5342V15.3125H53.3154V16.875H54.0967V4.375H56.4404V20H52.5342V18.4375H51.7529V16.875H50.9717V15.3125H50.1904V13.75H49.4092V12.1875H48.6279V10.625H47.8467V9.0625H47.0654V7.5H46.2842V20H43.9404ZM60.8486 20V19.2188H59.2861V18.4375H58.5049V16.875H57.7236V4.375H60.0674V15.3125H60.8486V16.875H61.6299V17.6562H65.5361V16.875H66.3174V15.3125H67.0986V4.375H69.4424V16.875H68.6611V18.4375H67.8799V19.2188H66.3174V20H60.8486ZM70.7744 20V4.375H73.1182V20H70.7744ZM78.5273 20V6.71875H73.0586V4.375H86.3398V6.71875H80.8711V20H78.5273ZM101.162 12.9688V12.1875H100.381V10.625H99.5996V9.0625H98.8184V7.5H98.0371V9.0625H97.2559V10.625H96.4746V12.1875H95.6934V12.9688H101.162ZM91.0059 20V17.6562H91.7871V16.0938H92.5684V13.75H93.3496V12.1875H94.1309V10.625H94.9121V9.0625H95.6934V7.5H96.4746V5.9375H97.2559V4.375H99.5996V5.9375H100.381V7.5H101.162V9.0625H101.943V10.625H102.725V12.1875H103.506V13.75H104.287V16.0938H105.068V17.6562H105.85V20H103.506V18.4375H102.725V16.875H101.943V15.3125H94.9121V16.875H94.1309V18.4375H93.3496V20H91.0059ZM109.33 20V19.2188H107.768V18.4375H106.986V16.875H106.205V4.375H108.549V15.3125H109.33V16.875H110.111V17.6562H114.018V16.875H114.799V15.3125H115.58V4.375H117.924V16.875H117.143V18.4375H116.361V19.2188H114.799V20H109.33ZM127.839 20V19.2188H126.276V18.4375H125.495V17.6562H124.714V16.0938H127.058V16.875H127.839V17.6562H131.745V16.875H132.526V14.5312H131.745V13.75H130.964V12.9688H128.62V12.1875H126.276V11.4062H125.495V10.625H124.714V6.71875H125.495V5.9375H126.276V5.15625H127.058V4.375H132.526V5.15625H133.308V5.9375H134.089V7.5H131.745V6.71875H127.839V7.5H127.058V9.84375H128.62V10.625H130.964V11.4062H132.526V12.1875H134.089V13.75H134.87V17.6562H134.089V18.4375H133.308V19.2188H131.745V20H127.839ZM138.985 20V19.2188H137.423V18.4375H136.642V16.875H135.86V4.375H138.204V15.3125H138.985V16.875H139.767V17.6562H143.673V16.875H144.454V15.3125H145.235V4.375H147.579V16.875H146.798V18.4375H146.017V19.2188H144.454V20H138.985ZM156.724 10.625V9.84375H157.505V7.5H156.724V6.71875H151.255V10.625H156.724ZM148.911 20V4.375H157.505V5.15625H158.286V5.9375H159.067V6.71875H159.849V10.625H159.067V11.4062H158.286V12.1875H157.505V12.9688H151.255V20H148.911ZM160.521 20V4.375H169.896V6.71875H162.865V10.625H169.896V12.9688H162.865V17.6562H169.896V20H160.521ZM179.041 10.625V9.84375H179.822V7.5H179.041V6.71875H173.572V10.625H179.041ZM171.229 20V4.375H179.822V5.15625H180.604V5.9375H181.385V6.71875H182.166V10.625H181.385V11.4062H180.604V12.1875H179.822V12.9688H177.479V13.75H178.26V14.5312H179.041V15.3125H179.822V16.0938H180.604V16.875H181.385V17.6562H182.166V18.4375H182.947V19.2188H183.729V20H180.604V19.2188H179.822V18.4375H179.041V17.6562H178.26V16.875H177.479V16.0938H176.697V15.3125H175.916V14.5312H175.135V13.75H174.354V12.9688H173.572V20H171.229ZM184.45 20V4.375H188.356V6.71875H189.138V8.28125H189.919V10.625H190.7V12.9688H191.481V16.0938H192.263V12.9688H193.044V10.625H193.825V8.28125H194.606V6.71875H195.388V4.375H199.294V20H196.95V8.28125H196.169V9.84375H195.388V12.9688H194.606V16.0938H193.825V18.4375H193.044V20H190.7V18.4375H189.919V16.0938H189.138V12.9688H188.356V9.84375H187.575V8.28125H186.794V20H184.45ZM209.83 12.9688V12.1875H209.049V10.625H208.268V9.0625H207.486V7.5H206.705V9.0625H205.924V10.625H205.143V12.1875H204.361V12.9688H209.83ZM199.674 20V17.6562H200.455V16.0938H201.236V13.75H202.018V12.1875H202.799V10.625H203.58V9.0625H204.361V7.5H205.143V5.9375H205.924V4.375H208.268V5.9375H209.049V7.5H209.83V9.0625H210.611V10.625H211.393V12.1875H212.174V13.75H212.955V16.0938H213.736V17.6562H214.518V20H212.174V18.4375H211.393V16.875H210.611V15.3125H203.58V16.875H202.799V18.4375H202.018V20H199.674ZM222.734 10.625V9.84375H223.516V7.5H222.734V6.71875H217.266V10.625H222.734ZM214.922 20V4.375H223.516V5.15625H224.297V5.9375H225.078V6.71875H225.859V10.625H225.078V11.4062H224.297V12.1875H223.516V12.9688H221.172V13.75H221.953V14.5312H222.734V15.3125H223.516V16.0938H224.297V16.875H225.078V17.6562H225.859V18.4375H226.641V19.2188H227.422V20H224.297V19.2188H223.516V18.4375H222.734V17.6562H221.953V16.875H221.172V16.0938H220.391V15.3125H219.609V14.5312H218.828V13.75H218.047V12.9688H217.266V20H214.922ZM231.586 20V19.2188H229.242V18.4375H228.461V17.6562H227.68V16.875H226.898V15.3125H226.117V9.0625H226.898V7.5H227.68V6.71875H228.461V5.9375H229.242V5.15625H231.586V4.375H235.492V5.15625H237.836V5.9375H238.617V7.5H239.398V8.28125H240.18V9.0625H237.055V8.28125H236.273V7.5H234.711V6.71875H232.367V7.5H230.805V8.28125H230.023V9.0625H229.242V10.625H228.461V13.75H229.242V15.3125H230.023V16.0938H230.805V16.875H232.367V17.6562H234.711V16.875H236.273V16.0938H237.055V15.3125H240.18V16.0938H239.398V16.875H238.617V18.4375H237.836V19.2188H235.492V20H231.586ZM240.73 20V4.375H243.074V10.625H250.105V4.375H252.449V20H250.105V12.9688H243.074V20H240.73ZM253.757 20V4.375H263.132V6.71875H256.101V10.625H263.132V12.9688H256.101V17.6562H263.132V20H253.757ZM257.663 2.8125V2.03125H258.444V1.25H259.226V0.46875H261.569V1.25H260.788V2.03125H260.007V2.8125H257.663Z" fill="#C52C14"/>
</svg>
