<svg width="368" height="69" viewBox="0 0 368 69" fill="none" xmlns="http://www.w3.org/2000/svg">
<path d="M21.0619 18.6818L22.8351 38.5046" stroke="#C52C14" stroke-width="3" stroke-linejoin="round"/>
<path d="M42.6136 49.1955C42.6136 50.7111 41.3929 51.9273 39.9023 51.9273C38.4117 51.9273 37.1909 50.7111 37.1909 49.1955C37.1909 47.6799 38.4117 46.4637 39.9023 46.4637C41.3929 46.4637 42.6136 47.6799 42.6136 49.1955Z" stroke="#C52C14" stroke-width="3"/>
<path d="M2 12H8.87116L10.7189 18.9045M10.7189 18.9045L15.964 38.5045H45.2218L50.7631 18.9045H10.7189Z" stroke="#C52C14" stroke-width="3" stroke-linecap="round" stroke-linejoin="round"/>
<path d="M16.1855 38.2818V45.4091H45.4434" stroke="#C52C14" stroke-width="3" stroke-linecap="round" stroke-linejoin="round"/>
<path d="M48.1033 28.7045H13.3041" stroke="#C52C14" stroke-width="3" stroke-linejoin="round"/>
<path d="M40.5671 18.9045L38.7939 38.7273" stroke="#C52C14" stroke-width="3" stroke-linejoin="round"/>
<path d="M30.5929 18.9045V38.7273" stroke="#C52C14" stroke-width="3" stroke-linejoin="round"/>
<path d="M20.8403 18.9045L22.8351 38.7273" stroke="#C52C14" stroke-width="3" stroke-linejoin="round"/>
<path d="M23.9949 49.1955C23.9949 50.7111 22.7742 51.9273 21.2836 51.9273C19.793 51.9273 18.5722 50.7111 18.5722 49.1955C18.5722 47.6799 19.793 46.4637 21.2836 46.4637C22.7742 46.4637 23.9949 47.6799 23.9949 49.1955Z" stroke="#C52C14" stroke-width="3"/>
<path d="M83.8955 42V41.2188H82.333V40.4375H81.5518V38.875H80.7705V26.375H83.1143V37.3125H83.8955V38.875H84.6768V39.6562H88.583V38.875H89.3643V37.3125H90.1455V26.375H92.4893V38.875H91.708V40.4375H90.9268V41.2188H89.3643V42H83.8955ZM93.8213 42V26.375H97.7275V27.9375H98.5088V29.5H99.29V31.0625H100.071V32.625H100.853V34.1875H101.634V35.75H102.415V37.3125H103.196V38.875H103.978V26.375H106.321V42H102.415V40.4375H101.634V38.875H100.853V37.3125H100.071V35.75H99.29V34.1875H98.5088V32.625H97.7275V31.0625H96.9463V29.5H96.165V42H93.8213ZM107.653 42V26.375H117.028V28.7188H109.997V32.625H117.028V34.9688H109.997V39.6562H117.028V42H107.653ZM123.94 42V26.375H127.847V27.9375H128.628V29.5H129.409V31.0625H130.19V32.625H130.972V34.1875H131.753V35.75H132.534V37.3125H133.315V38.875H134.097V26.375H136.44V42H132.534V40.4375H131.753V38.875H130.972V37.3125H130.19V35.75H129.409V34.1875H128.628V32.625H127.847V31.0625H127.065V29.5H126.284V42H123.94ZM140.849 42V41.2188H139.286V40.4375H138.505V38.875H137.724V26.375H140.067V37.3125H140.849V38.875H141.63V39.6562H145.536V38.875H146.317V37.3125H147.099V26.375H149.442V38.875H148.661V40.4375H147.88V41.2188H146.317V42H140.849ZM150.774 42V26.375H153.118V42H150.774ZM158.527 42V28.7188H153.059V26.375H166.34V28.7188H160.871V42H158.527ZM181.162 34.9688V34.1875H180.381V32.625H179.6V31.0625H178.818V29.5H178.037V31.0625H177.256V32.625H176.475V34.1875H175.693V34.9688H181.162ZM171.006 42V39.6562H171.787V38.0938H172.568V35.75H173.35V34.1875H174.131V32.625H174.912V31.0625H175.693V29.5H176.475V27.9375H177.256V26.375H179.6V27.9375H180.381V29.5H181.162V31.0625H181.943V32.625H182.725V34.1875H183.506V35.75H184.287V38.0938H185.068V39.6562H185.85V42H183.506V40.4375H182.725V38.875H181.943V37.3125H174.912V38.875H174.131V40.4375H173.35V42H171.006ZM189.33 42V41.2188H187.768V40.4375H186.986V38.875H186.205V26.375H188.549V37.3125H189.33V38.875H190.111V39.6562H194.018V38.875H194.799V37.3125H195.58V26.375H197.924V38.875H197.143V40.4375H196.361V41.2188H194.799V42H189.33ZM207.839 42V41.2188H206.276V40.4375H205.495V39.6562H204.714V38.0938H207.058V38.875H207.839V39.6562H211.745V38.875H212.526V36.5312H211.745V35.75H210.964V34.9688H208.62V34.1875H206.276V33.4062H205.495V32.625H204.714V28.7188H205.495V27.9375H206.276V27.1562H207.058V26.375H212.526V27.1562H213.308V27.9375H214.089V29.5H211.745V28.7188H207.839V29.5H207.058V31.8438H208.62V32.625H210.964V33.4062H212.526V34.1875H214.089V35.75H214.87V39.6562H214.089V40.4375H213.308V41.2188H211.745V42H207.839ZM218.985 42V41.2188H217.423V40.4375H216.642V38.875H215.86V26.375H218.204V37.3125H218.985V38.875H219.767V39.6562H223.673V38.875H224.454V37.3125H225.235V26.375H227.579V38.875H226.798V40.4375H226.017V41.2188H224.454V42H218.985ZM236.724 32.625V31.8438H237.505V29.5H236.724V28.7188H231.255V32.625H236.724ZM228.911 42V26.375H237.505V27.1562H238.286V27.9375H239.067V28.7188H239.849V32.625H239.067V33.4062H238.286V34.1875H237.505V34.9688H231.255V42H228.911ZM240.521 42V26.375H249.896V28.7188H242.865V32.625H249.896V34.9688H242.865V39.6562H249.896V42H240.521ZM259.041 32.625V31.8438H259.822V29.5H259.041V28.7188H253.572V32.625H259.041ZM251.229 42V26.375H259.822V27.1562H260.604V27.9375H261.385V28.7188H262.166V32.625H261.385V33.4062H260.604V34.1875H259.822V34.9688H257.479V35.75H258.26V36.5312H259.041V37.3125H259.822V38.0938H260.604V38.875H261.385V39.6562H262.166V40.4375H262.947V41.2188H263.729V42H260.604V41.2188H259.822V40.4375H259.041V39.6562H258.26V38.875H257.479V38.0938H256.697V37.3125H255.916V36.5312H255.135V35.75H254.354V34.9688H253.572V42H251.229ZM264.45 42V26.375H268.356V28.7188H269.138V30.2812H269.919V32.625H270.7V34.9688H271.481V38.0938H272.263V34.9688H273.044V32.625H273.825V30.2812H274.606V28.7188H275.388V26.375H279.294V42H276.95V30.2812H276.169V31.8438H275.388V34.9688H274.606V38.0938H273.825V40.4375H273.044V42H270.7V40.4375H269.919V38.0938H269.138V34.9688H268.356V31.8438H267.575V30.2812H266.794V42H264.45ZM289.83 34.9688V34.1875H289.049V32.625H288.268V31.0625H287.486V29.5H286.705V31.0625H285.924V32.625H285.143V34.1875H284.361V34.9688H289.83ZM279.674 42V39.6562H280.455V38.0938H281.236V35.75H282.018V34.1875H282.799V32.625H283.58V31.0625H284.361V29.5H285.143V27.9375H285.924V26.375H288.268V27.9375H289.049V29.5H289.83V31.0625H290.611V32.625H291.393V34.1875H292.174V35.75H292.955V38.0938H293.736V39.6562H294.518V42H292.174V40.4375H291.393V38.875H290.611V37.3125H283.58V38.875H282.799V40.4375H282.018V42H279.674ZM302.734 32.625V31.8438H303.516V29.5H302.734V28.7188H297.266V32.625H302.734ZM294.922 42V26.375H303.516V27.1562H304.297V27.9375H305.078V28.7188H305.859V32.625H305.078V33.4062H304.297V34.1875H303.516V34.9688H301.172V35.75H301.953V36.5312H302.734V37.3125H303.516V38.0938H304.297V38.875H305.078V39.6562H305.859V40.4375H306.641V41.2188H307.422V42H304.297V41.2188H303.516V40.4375H302.734V39.6562H301.953V38.875H301.172V38.0938H300.391V37.3125H299.609V36.5312H298.828V35.75H298.047V34.9688H297.266V42H294.922ZM311.586 42V41.2188H309.242V40.4375H308.461V39.6562H307.68V38.875H306.898V37.3125H306.117V31.0625H306.898V29.5H307.68V28.7188H308.461V27.9375H309.242V27.1562H311.586V26.375H315.492V27.1562H317.836V27.9375H318.617V29.5H319.398V30.2812H320.18V31.0625H317.055V30.2812H316.273V29.5H314.711V28.7188H312.367V29.5H310.805V30.2812H310.023V31.0625H309.242V32.625H308.461V35.75H309.242V37.3125H310.023V38.0938H310.805V38.875H312.367V39.6562H314.711V38.875H316.273V38.0938H317.055V37.3125H320.18V38.0938H319.398V38.875H318.617V40.4375H317.836V41.2188H315.492V42H311.586ZM320.73 42V26.375H323.074V32.625H330.105V26.375H332.449V42H330.105V34.9688H323.074V42H320.73ZM333.757 42V26.375H343.132V28.7188H336.101V32.625H343.132V34.9688H336.101V39.6562H343.132V42H333.757ZM337.663 24.8125V24.0312H338.444V23.25H339.226V22.4688H341.569V23.25H340.788V24.0312H340.007V24.8125H337.663Z" fill="#C52C14"/>
</svg>
