<svg width="1151" height="684" viewBox="0 0 1151 684" fill="none" xmlns="http://www.w3.org/2000/svg">
<path d="M50.4004 194V184.312H31.0254V174.625H21.3379V155.25H11.6504V0.25H40.7129V135.875H50.4004V155.25H60.0879V164.938H108.525V155.25H118.213V135.875H127.9V0.25H156.963V155.25H147.275V174.625H137.588V184.312H118.213V194H50.4004ZM173.48 194V0.25H221.918V19.625H231.605V39H241.293V58.375H250.98V77.75H260.668V97.125H270.355V116.5H280.043V135.875H289.73V155.25H299.418V0.25H328.48V194H280.043V174.625H270.355V155.25H260.668V135.875H250.98V116.5H241.293V97.125H231.605V77.75H221.918V58.375H212.23V39H202.543V194H173.48ZM344.997 194V0.25H461.247V29.3125H374.06V77.75H461.247V106.812H374.06V164.938H461.247V194H344.997ZM546.957 194V0.25H595.395V19.625H605.082V39H614.77V58.375H624.457V77.75H634.145V97.125H643.832V116.5H653.52V135.875H663.207V155.25H672.895V0.25H701.957V194H653.52V174.625H643.832V155.25H634.145V135.875H624.457V116.5H614.77V97.125H605.082V77.75H595.395V58.375H585.707V39H576.02V194H546.957ZM756.619 194V184.312H737.244V174.625H727.557V155.25H717.869V0.25H746.932V135.875H756.619V155.25H766.307V164.938H814.744V155.25H824.432V135.875H834.119V0.25H863.182V155.25H853.494V174.625H843.807V184.312H824.432V194H756.619ZM879.699 194V0.25H908.761V194H879.699ZM975.835 194V29.3125H908.023V0.25H1072.71V29.3125H1004.9V194H975.835ZM126.387 351.812V342.125H116.699V322.75H107.012V303.375H97.3242V284H87.6367V303.375H77.9492V322.75H68.2617V342.125H58.5742V351.812H126.387ZM0.449219 439V409.938H10.1367V390.562H19.8242V361.5H29.5117V342.125H39.1992V322.75H48.8867V303.375H58.5742V284H68.2617V264.625H77.9492V245.25H107.012V264.625H116.699V284H126.387V303.375H136.074V322.75H145.762V342.125H155.449V361.5H165.137V390.562H174.824V409.938H184.512V439H155.449V419.625H145.762V400.25H136.074V380.875H48.8867V400.25H39.1992V419.625H29.5117V439H0.449219ZM227.67 439V429.312H208.295V419.625H198.607V400.25H188.92V245.25H217.982V380.875H227.67V400.25H237.357V409.938H285.795V400.25H295.482V380.875H305.17V245.25H334.232V400.25H324.545V419.625H314.857V429.312H295.482V439H227.67ZM457.179 439V429.312H437.804V419.625H428.116V409.938H418.429V390.562H447.491V400.25H457.179V409.938H505.616V400.25H515.304V371.188H505.616V361.5H495.929V351.812H466.866V342.125H437.804V332.438H428.116V322.75H418.429V274.312H428.116V264.625H437.804V254.938H447.491V245.25H515.304V254.938H524.991V264.625H534.679V284H505.616V274.312H457.179V284H447.491V313.062H466.866V322.75H495.929V332.438H515.304V342.125H534.679V361.5H544.366V409.938H534.679V419.625H524.991V429.312H505.616V439H457.179ZM595.395 439V429.312H576.02V419.625H566.332V400.25H556.645V245.25H585.707V380.875H595.395V400.25H605.082V409.938H653.52V400.25H663.207V380.875H672.895V245.25H701.957V400.25H692.27V419.625H682.582V429.312H663.207V439H595.395ZM815.35 322.75V313.062H825.037V284H815.35V274.312H747.537V322.75H815.35ZM718.475 439V245.25H825.037V254.938H834.725V264.625H844.412V274.312H854.1V322.75H844.412V332.438H834.725V342.125H825.037V351.812H747.537V439H718.475ZM862.443 439V245.25H978.693V274.312H891.505V322.75H978.693V351.812H891.505V409.938H978.693V439H862.443ZM1092.09 322.75V313.062H1101.77V284H1092.09V274.312H1024.27V322.75H1092.09ZM995.21 439V245.25H1101.77V254.938H1111.46V264.625H1121.15V274.312H1130.84V322.75H1121.15V332.438H1111.46V342.125H1101.77V351.812H1072.71V361.5H1082.4V371.188H1092.09V380.875H1101.77V390.562H1111.46V400.25H1121.15V409.938H1130.84V419.625H1140.52V429.312H1150.21V439H1111.46V429.312H1101.77V419.625H1092.09V409.938H1082.4V400.25H1072.71V390.562H1063.02V380.875H1053.34V371.188H1043.65V361.5H1033.96V351.812H1024.27V439H995.21ZM12.2559 684V490.25H60.6934V519.312H70.3809V538.688H80.0684V567.75H89.7559V596.812H99.4434V635.562H109.131V596.812H118.818V567.75H128.506V538.688H138.193V519.312H147.881V490.25H196.318V684H167.256V538.688H157.568V558.062H147.881V596.812H138.193V635.562H128.506V664.625H118.818V684H89.7559V664.625H80.0684V635.562H70.3809V596.812H60.6934V558.062H51.0059V538.688H41.3184V684H12.2559ZM326.966 596.812V587.125H317.279V567.75H307.591V548.375H297.904V529H288.216V548.375H278.529V567.75H268.841V587.125H259.154V596.812H326.966ZM201.029 684V654.938H210.716V635.562H220.404V606.5H230.091V587.125H239.779V567.75H249.466V548.375H259.154V529H268.841V509.625H278.529V490.25H307.591V509.625H317.279V529H326.966V548.375H336.654V567.75H346.341V587.125H356.029V606.5H365.716V635.562H375.404V654.938H385.091V684H356.029V664.625H346.341V645.25H336.654V625.875H249.466V645.25H239.779V664.625H230.091V684H201.029ZM486.98 567.75V558.062H496.667V529H486.98V519.312H419.167V567.75H486.98ZM390.105 684V490.25H496.667V499.938H506.355V509.625H516.042V519.312H525.73V567.75H516.042V577.438H506.355V587.125H496.667V596.812H467.605V606.5H477.292V616.188H486.98V625.875H496.667V635.562H506.355V645.25H516.042V654.938H525.73V664.625H535.417V674.312H545.105V684H506.355V674.312H496.667V664.625H486.98V654.938H477.292V645.25H467.605V635.562H457.917V625.875H448.23V616.188H438.542V606.5H428.855V596.812H419.167V684H390.105ZM596.739 684V674.312H567.677V664.625H557.989V654.938H548.302V645.25H538.614V625.875H528.927V548.375H538.614V529H548.302V519.312H557.989V509.625H567.677V499.938H596.739V490.25H645.177V499.938H674.239V509.625H683.927V529H693.614V538.688H703.302V548.375H664.552V538.688H654.864V529H635.489V519.312H606.427V529H587.052V538.688H577.364V548.375H567.677V567.75H557.989V606.5H567.677V625.875H577.364V635.562H587.052V645.25H606.427V654.938H635.489V645.25H654.864V635.562H664.552V625.875H703.302V635.562H693.614V645.25H683.927V664.625H674.239V674.312H645.177V684H596.739ZM710.131 684V490.25H739.194V567.75H826.381V490.25H855.444V684H826.381V596.812H739.194V684H710.131ZM871.658 684V490.25H987.908V519.312H900.721V567.75H987.908V596.812H900.721V654.938H987.908V684H871.658ZM920.096 470.875V461.188H929.783V451.5H939.471V441.812H968.533V451.5H958.846V461.188H949.158V470.875H920.096Z" fill="#C52C14"/>
</svg>
